<?xml version="1.0" encoding="UTF-8"?>
<svg version="1.1" xmlns="http://www.w3.org/2000/svg" width="1209" height="520">
<path d="M0 0 C29.72538583 -1.03310978 57.64193919 10.84493783 79.1953125 30.83203125 C98.69714763 49.76308096 109.37201828 73.22998544 112.59765625 100.1640625 C112.59765625 111.7140625 112.59765625 123.2640625 112.59765625 135.1640625 C153.18765625 135.1640625 193.77765625 135.1640625 235.59765625 135.1640625 C235.59765625 248.0240625 235.59765625 360.8840625 235.59765625 477.1640625 C82.14765625 477.1640625 -71.30234375 477.1640625 -229.40234375 477.1640625 C-229.40234375 364.3040625 -229.40234375 251.4440625 -229.40234375 135.1640625 C-188.81234375 135.1640625 -148.22234375 135.1640625 -106.40234375 135.1640625 C-106.40234375 122.9540625 -106.40234375 110.7440625 -106.40234375 98.1640625 C-104.42460685 84.68615181 -104.42460685 84.68615181 -102.40234375 78.1640625 C-102.04011719 76.99230469 -101.67789063 75.82054688 -101.3046875 74.61328125 C-91.32906254 46.37719027 -71.28617032 24.11173229 -44.49853516 10.91455078 C-30.19630381 4.15318379 -15.7064602 1.07263631 0 0 Z M-49.265625 68.4375 C-65.4255315 89.05836789 -63.40234375 108.81343998 -63.40234375 135.1640625 C-19.51234375 135.1640625 24.37765625 135.1640625 69.59765625 135.1640625 C69.87380616 95.48751723 69.87380616 95.48751723 51.08325195 63.31518555 C38.32651627 50.64936839 21.23629342 43.66468237 3.34765625 42.8515625 C-17.60198199 43.56875732 -35.58057476 52.62684859 -49.265625 68.4375 Z " fill="#E12329" transform="translate(229.40234375,-0.1640625)"/>
<path d="M0 0 C14.79028695 12.49392542 24.13385852 28.5322278 26 48 C27.21654806 69.27891963 20.83664161 86.39658904 7.1875 102.6875 C-0.33461811 110.81202098 -9.75505871 115.64571872 -19.61328125 120.4140625 C-21.40491404 121.29649552 -23.19654122 122.17894015 -24.98783398 123.06206322 C-28.72298336 124.90037036 -32.46506309 126.72452106 -36.20721436 128.54852295 C-39.31182879 130.06205376 -42.41447174 131.57929845 -45.51200867 133.10726929 C-47.82248901 134.24612607 -50.13728644 135.37627761 -52.4568634 136.49649048 C-53.50532944 137.01407928 -54.55379547 137.53166809 -55.6340332 138.06494141 C-56.5520723 138.51237701 -57.47011139 138.95981262 -58.41596985 139.42080688 C-61.41319177 141.25251625 -63.60912018 143.44130809 -66 146 C-65.06785172 145.99111755 -64.13570343 145.98223511 -63.17530823 145.9730835 C-54.36321054 145.89177135 -45.55118962 145.83192646 -36.738801 145.79275131 C-32.20892688 145.77193337 -27.67935717 145.74372253 -23.1496582 145.69824219 C-18.77298454 145.65457649 -14.3966025 145.63081938 -10.01972771 145.62049103 C-8.3552587 145.61313666 -6.6908045 145.59877565 -5.02646065 145.57707977 C13.57821995 145.34434104 13.57821995 145.34434104 21.15625 151.8515625 C21.5996875 152.43679688 22.043125 153.02203125 22.5 153.625 C22.9640625 154.21539062 23.428125 154.80578125 23.90625 155.4140625 C27.29685728 160.33044306 26.68346268 166.26942833 26 172 C23.73928836 177.61948321 20.47882632 181.18812336 15.16659355 184.14095879 C10.90787985 185.82951296 6.48175366 185.56241331 1.95922852 185.53344727 C0.8689032 185.54206284 -0.22142212 185.55067841 -1.3447876 185.55955505 C-4.93713341 185.58219639 -8.52869796 185.57547891 -12.12109375 185.56640625 C-14.62541434 185.57164269 -17.12973295 185.57791925 -19.63404846 185.58518982 C-24.87858373 185.59559073 -30.12291719 185.5913676 -35.36743164 185.57641602 C-41.41444184 185.55949859 -47.46072993 185.57533052 -53.50766128 185.6076389 C-59.3441758 185.6376319 -65.18041214 185.63950366 -71.01698494 185.6301403 C-73.49165854 185.62932137 -75.96634724 185.63617354 -78.4409771 185.65091133 C-81.90446103 185.66837628 -85.36641108 185.6537959 -88.82983398 185.63110352 C-89.84670792 185.64279572 -90.86358185 185.65448792 -91.91127014 185.66653442 C-99.34884437 185.56764119 -104.37575268 183.69366118 -109.62764645 178.34117985 C-113.57542927 173.75889256 -113.74936817 169.22146349 -113.5625 163.375 C-113.54517822 162.49126709 -113.52785645 161.60753418 -113.51000977 160.69702148 C-112.8163632 141.34022284 -103.01782161 126.52422242 -89.44262695 113.5065918 C-84.80271611 109.28510572 -79.76867652 106.49695701 -74.1875 103.6875 C-73.22134766 103.19040527 -72.25519531 102.69331055 -71.25976562 102.18115234 C-65.68721679 99.3284559 -60.08362909 96.54187267 -54.46614075 93.77906799 C-52.16933407 92.64917211 -49.87424127 91.51585173 -47.5793457 90.38208008 C-44.57219792 88.89649548 -41.55833504 87.42589725 -38.53979492 85.96362305 C-28.09706528 80.85604854 -20.18028063 76.39129949 -15.109375 65.41796875 C-12.50928651 57.40713274 -12.6021195 49.048171 -16.1875 41.375 C-20.49905883 34.08870644 -26.53467079 29.7326646 -34 26 C-44.41003005 25.3037151 -54.09957422 24.96843953 -62.875 31.3671875 C-67.7457812 35.73784385 -70.76561873 41.35421044 -73.91015625 47.01171875 C-76.85632494 51.22446463 -80.15374455 53.38458152 -85 55 C-91.88290568 55.71378281 -97.64982874 55.74708443 -103.37890625 51.56640625 C-107.687384 47.40327473 -109.83716652 42.23719044 -110.26953125 36.296875 C-110.19909977 31.69254836 -108.79689295 28.28828163 -106.6875 24.25 C-106.33502197 23.56115723 -105.98254395 22.87231445 -105.61938477 22.16259766 C-101.79821534 15.06602273 -96.77814173 9.55051796 -91 4 C-90.41734375 3.40960938 -89.8346875 2.81921875 -89.234375 2.2109375 C-65.34013869 -20.35584123 -25.34292248 -19.56358747 0 0 Z " fill="#FDFCFC" transform="translate(363,221)"/>
<path d="M0 0 C9.99576991 5.51112307 12.35775101 17.2971402 15.59103394 27.36341858 C16.19237305 29.18564332 16.79561453 31.00724124 17.40063477 32.82824707 C18.66878694 36.6543787 19.92611592 40.48382093 21.17514038 44.3162384 C23.0339221 50.01225929 24.92947805 55.69548146 26.83615112 61.37562561 C29.32177591 68.78468762 31.80045215 76.19596706 34.26681519 83.61146545 C34.56939114 84.52119928 34.87196709 85.43093311 35.18371201 86.36823463 C35.79726628 88.21315399 36.41078262 90.05808596 37.02426147 91.9030304 C38.6195623 96.69946257 40.21672353 101.49527522 41.81369019 106.29115295 C44.90527089 115.57638275 47.99493036 124.86225042 51.08322144 134.14857483 C53.70962512 127.75553083 56.11072156 121.33674299 58.26290894 114.76966858 C58.5521373 113.89637405 58.84136566 113.02307953 59.13935852 112.12332153 C59.75922587 110.2512902 60.37782127 108.37883729 60.99523926 106.5059967 C62.65384302 101.47683467 64.3236287 96.45138924 65.99337769 91.42591858 C66.33408798 90.40005646 66.67479828 89.37419434 67.02583313 88.31724548 C70.99769273 76.37373189 75.05030317 64.45786838 79.14743042 52.55677795 C79.71722395 50.90119644 80.28696753 49.24559774 80.85665894 47.58998108 C81.13189896 46.79049042 81.40713898 45.99099976 81.6907196 45.1672821 C83.24682637 40.63303631 84.76817946 36.08940742 86.25010681 31.53038025 C86.91742507 29.47927375 87.592235 27.43079061 88.26950073 25.38294983 C89.07062661 22.95190405 89.85734141 20.51603245 90.62545776 18.07435608 C93.07028114 10.72716115 96.16809512 4.3769832 102.82907104 0.00184631 C107.64989072 -2.3431453 112.19463988 -2.70130556 117.31369019 -1.19517517 C122.97283569 1.00402375 126.76764666 4.04495794 130.08322144 9.14857483 C133.02806483 17.983105 130.21106768 26.02495704 127.21557617 34.48458481 C126.1296886 37.5536874 125.08002316 40.6349344 124.02629089 43.71519661 C123.41808779 45.49165968 122.80805718 47.26749788 122.19642639 49.04278374 C119.44683683 57.03465755 116.77720213 65.05230309 114.12619019 73.07728577 C113.90743351 73.73945744 113.68867683 74.40162911 113.46329117 75.0838666 C112.55622215 77.83007127 111.64939288 80.57635493 110.74293327 83.32276082 C107.909913 91.90487042 105.06121631 100.48177489 102.21364975 109.0590663 C99.50314324 117.22394723 96.79564578 125.38979521 94.09738159 133.55873108 C91.91832873 140.15571517 89.73293764 146.75055968 87.53994846 153.34292471 C86.38956236 156.80185319 85.24229283 160.26174143 84.1027832 163.72426987 C82.84305271 167.55179078 81.56923378 171.37447809 80.29415894 175.19691467 C79.92531082 176.32503067 79.55646271 177.45314667 79.17643738 178.615448 C76.38794566 186.91520396 74.03593803 192.67517175 66.08322144 197.14857483 C61.15036709 198.69617489 56.01897732 198.49245516 50.89572144 198.58607483 C49.89218628 198.63183655 48.88865112 198.67759827 47.85470581 198.7247467 C41.4214947 198.82101466 37.33067785 197.79574183 32.02731323 194.12928772 C27.68907899 189.70933363 25.51699759 184.073846 23.59684753 178.28399658 C23.37770713 177.63014191 23.15856672 176.97628725 22.93278569 176.3026188 C22.20797356 174.13402705 21.49387706 171.96206528 20.77975464 169.78993225 C20.25927606 168.22544592 19.73812996 166.66118153 19.21636963 165.09712219 C17.80702397 160.86625785 16.40688829 156.63239684 15.00833535 152.3979547 C13.54229807 147.96477679 12.06747748 143.53452324 10.59352112 139.10397339 C7.80525353 130.71849571 5.02438892 122.33058358 2.2464096 113.94169265 C-1.83644981 101.61338482 -5.92988658 89.28858891 -10.02400684 76.96401691 C-10.62740961 75.14755079 -11.23081175 73.33108446 -11.83421326 71.51461792 C-12.27595696 70.18489022 -12.27595696 70.18489022 -12.72662479 68.82829934 C-14.47978763 63.55010305 -16.23059985 58.27113428 -17.97936475 52.99147928 C-19.06461707 49.71557094 -20.15099406 46.44003625 -21.2375679 43.16456604 C-21.74242339 41.64171301 -22.24674683 40.11868348 -22.75050926 38.59546852 C-23.43610066 36.5226044 -24.12350829 34.45035128 -24.81135559 32.37823486 C-25.19607875 31.2166495 -25.58080191 30.05506414 -25.97718334 28.85827923 C-26.82510654 26.2239984 -26.82510654 26.2239984 -27.91677856 24.14857483 C-28.65633501 17.281265 -28.65315944 11.53860423 -24.48318481 5.83607483 C-17.72499739 -1.44456599 -9.33536307 -4.14672996 0 0 Z " fill="#FDFCFC" transform="translate(103.91677856445313,207.85142517089844)"/>
<path d="M0 0 C7.35440627 5.91181119 12.2931799 13.20439189 13.84375 22.5078125 C5.92375 26.9628125 5.92375 26.9628125 -2.15625 31.5078125 C-4.18095974 28.80819952 -5.74113661 26.51404524 -7.34375 23.6328125 C-10.84592169 17.99568329 -15.42535665 14.62039868 -21.53125 12.1328125 C-29.9861258 10.67507529 -36.69044629 10.96919519 -44.15625 15.5078125 C-48.69048538 19.25348521 -51.66023323 23.05204732 -52.51171875 28.984375 C-53.16466555 41.51389473 -46.04818048 49.39910045 -38.15625 58.2421875 C-35.18858803 61.50437874 -32.12031212 64.64581326 -28.953125 67.71484375 C-26.4486278 70.21389639 -24.17637554 72.89256443 -21.87109375 75.57421875 C-19.65751487 78.0701676 -17.29203078 80.38483267 -14.91015625 82.71875 C-13.04531777 84.62096832 -11.32119605 86.60543625 -9.59375 88.6328125 C-6.69357184 92.00541787 -3.65977579 94.77335334 -0.15625 97.5078125 C2.22079629 89.24715518 4.11101504 80.9257093 5.84375 72.5078125 C10.38222198 73.85708795 14.16307246 75.69940598 18.21875 78.1328125 C19.27835938 78.76445312 20.33796875 79.39609375 21.4296875 80.046875 C22.22632813 80.52898437 23.02296875 81.01109375 23.84375 81.5078125 C23.797467 91.13467722 20.41130532 101.35072326 15.58984375 109.671875 C14.45931028 112.453816 14.76197782 113.69603062 15.84375 116.5078125 C17.78348141 118.89453856 19.9762963 120.97042859 22.21875 123.0703125 C30.26801015 130.75928917 30.26801015 130.75928917 31.84375 133.5078125 C30.46152475 137.65448824 27.64276962 138.76229076 24.03125 140.8203125 C23.40154297 141.20509766 22.77183594 141.58988281 22.12304688 141.98632812 C17.51030583 144.64361546 17.51030583 144.64361546 14.75390625 144.08203125 C12.05626559 141.85882228 9.54359348 139.49623619 7.09375 137.0078125 C6.58714844 136.50894531 6.08054687 136.01007813 5.55859375 135.49609375 C1.84375 131.76122389 1.84375 131.76122389 1.84375 129.5078125 C-0.60641733 130.96665771 -3.04330086 132.43553276 -5.4453125 133.97265625 C-21.42795721 144.04867139 -38.59113809 145.34654929 -57.0859375 143.01171875 C-68.43117171 140.40378829 -79.37399936 133.82644373 -85.828125 123.94921875 C-89.64310567 116.57732963 -91.53420977 109.47129826 -91.46875 101.1953125 C-91.46311035 100.44620605 -91.4574707 99.69709961 -91.45166016 98.92529297 C-91.18963288 86.93170805 -86.63543562 75.8644957 -78.28125 67.1328125 C-74.58285196 63.66288692 -70.58584786 60.95822834 -66.15625 58.5078125 C-66.56617188 57.67378906 -66.97609375 56.83976562 -67.3984375 55.98046875 C-74.18653846 41.80340622 -76.19804817 30.67370337 -71.15625 15.5078125 C-67.15278674 6.04908062 -60.30956286 -0.8901522 -51.15625 -5.4921875 C-33.82115864 -12.46106845 -15.42434094 -10.67409101 0 0 Z M-63.15625 79.5078125 C-68.7010737 86.52657668 -71.58126607 93.71138278 -70.96875 102.6328125 C-69.91750873 110.52316361 -66.34043612 115.02981813 -60.3046875 120.046875 C-52.88794634 125.09025899 -42.79083692 125.41671639 -34.15625 124.5078125 C-26.27613549 122.840348 -19.72399281 120.14386625 -13.15625 115.5078125 C-14.6403873 112.02126774 -16.61839052 109.86590178 -19.34375 107.2578125 C-22.91244013 103.77477093 -26.2320691 100.18900037 -29.4765625 96.40625 C-31.67668565 93.91959918 -34.03449378 91.61844109 -36.40234375 89.29296875 C-38.25635111 87.40592785 -39.99008991 85.4475188 -41.71875 83.4453125 C-44.73938796 79.9630939 -47.74207849 76.61160478 -51.15625 73.5078125 C-56.12229956 73.5078125 -59.47591962 76.34247716 -63.15625 79.5078125 Z " fill="#2A2928" transform="translate(1177.15625,142.4921875)"/>
<path d="M0 0 C2.54547844 2.03515305 4.29760107 3.8760891 6.1171875 6.60546875 C6.4471875 1.98546875 6.7771875 -2.63453125 7.1171875 -7.39453125 C13.7171875 -7.39453125 20.3171875 -7.39453125 27.1171875 -7.39453125 C27.1171875 27.58546875 27.1171875 62.56546875 27.1171875 98.60546875 C20.5171875 98.60546875 13.9171875 98.60546875 7.1171875 98.60546875 C6.6221875 91.18046875 6.6221875 91.18046875 6.1171875 83.60546875 C4.6940625 85.39984375 4.6940625 85.39984375 3.2421875 87.23046875 C-3.9209022 95.35726731 -13.34910643 99.92106589 -24.12939453 100.78564453 C-34.59210995 101.36128989 -44.26752367 101.23182944 -53.8828125 96.60546875 C-54.72714844 96.20457031 -55.57148437 95.80367188 -56.44140625 95.390625 C-69.25131107 88.49605844 -78.60117448 76.95673707 -83.2578125 63.29296875 C-86.78359324 49.72315715 -86.53038505 34.51685993 -80.8828125 21.60546875 C-80.5321875 20.80238281 -80.1815625 19.99929687 -79.8203125 19.171875 C-73.16991891 5.84799617 -61.64030955 -3.43708667 -47.8984375 -8.44921875 C-31.0949852 -13.71662219 -13.9580461 -10.33822087 0 0 Z M-47.8828125 12.60546875 C-48.58664062 13.01796875 -49.29046875 13.43046875 -50.015625 13.85546875 C-57.74288982 19.02656612 -63.17439163 26.90584703 -65.44921875 35.90625 C-67.38393096 47.95026927 -65.67717976 58.61247309 -58.546875 68.5703125 C-52.57278168 75.87665668 -44.71353367 80.57482642 -35.4296875 82.3515625 C-25.25117574 83.36629143 -15.53324951 81.73973278 -7.21875 75.65625 C0.96660278 68.73854035 6.52797346 60.53901069 7.453125 49.65234375 C7.71163595 37.36739192 5.75472392 27.88282268 -2.8828125 18.60546875 C-11.34184515 10.72981766 -20.26696685 7.99417872 -31.62255859 8.1328125 C-37.65704767 8.37994047 -42.62369848 9.52320412 -47.8828125 12.60546875 Z " fill="#2A2928" transform="translate(720.8828125,184.39453125)"/>
<path d="M0 0 C7.41398601 5.82797203 7.41398601 5.82797203 9 9 C9.33 4.38 9.66 -0.24 10 -5 C16.6 -5 23.2 -5 30 -5 C30 29.65 30 64.3 30 100 C23.4 100 16.8 100 10 100 C9.67 95.38 9.34 90.76 9 86 C8.195625 87.03125 7.39125 88.0625 6.5625 89.125 C-0.66315205 97.44290178 -10.2564978 102.10843063 -21.23144531 103.22753906 C-37.35523646 104.28385665 -51.08190589 101.09327623 -63.78125 90.73046875 C-74.37555949 81.02386926 -81.64768073 67.60270717 -82.3359375 53.08203125 C-82.51289041 42.69949039 -82.2174951 33.6419707 -78 24 C-77.649375 23.19691406 -77.29875 22.39382813 -76.9375 21.56640625 C-69.98947234 7.64622583 -57.50561567 -2.09726398 -43 -7 C-28.72032873 -10.7982964 -12.13695039 -8.29026666 0 0 Z M-54 22 C-61.86595639 31.69749035 -64.0667666 41.6559865 -63 54 C-61.64025864 63.09160398 -56.7148301 70.95871705 -49.7578125 76.921875 C-40.46539417 83.41692172 -30.25625391 86.24072867 -18.9375 84.375 C-9.12972171 82.02424679 -1.10645186 77.25797052 4.46875 68.76171875 C10.35587486 58.57904639 11.90605324 47.45811126 9.3125 35.94921875 C5.55794415 25.89013787 -1.52642112 17.97716771 -11.00390625 12.93359375 C-26.09586055 6.62241286 -42.5368948 10.79163047 -54 22 Z " fill="#2A2928" transform="translate(718,378)"/>
<path d="M0 0 C11.54729064 9.74908661 17.50459188 21.45264688 20.43359375 36.09765625 C20.43359375 42.36765625 20.43359375 48.63765625 20.43359375 55.09765625 C-8.60640625 55.09765625 -37.64640625 55.09765625 -67.56640625 55.09765625 C-63.29985541 65.76403335 -59.34402771 74.23342002 -48.56640625 79.09765625 C-37.43620807 83.52464329 -24.94705396 83.93035691 -13.87109375 79.23046875 C-8.01570753 76.35239756 -4.83129993 73.62286094 -1.56640625 68.09765625 C2.85683057 68.68030897 5.94918015 70.36531836 9.74609375 72.66015625 C10.81472656 73.30082031 11.88335938 73.94148438 12.984375 74.6015625 C13.79261719 75.09527344 14.60085938 75.58898437 15.43359375 76.09765625 C14.1121475 83.54730949 6.81351395 89.153455 1.03515625 93.4921875 C-13.1739148 102.26084847 -32.23038704 103.63201952 -48.31640625 99.91015625 C-58.61395363 96.70876974 -65.94622826 91.69137528 -73.56640625 84.09765625 C-74.14390625 83.54335938 -74.72140625 82.9890625 -75.31640625 82.41796875 C-85.41056791 71.85064326 -87.95217819 57.50915451 -87.86499023 43.48413086 C-87.4970736 29.06211736 -82.28324539 15.59131403 -72.31640625 5.09765625 C-52.95939651 -12.9335309 -21.57658876 -15.99360536 0 0 Z M-59.56640625 19.09765625 C-64.41738573 25.41229334 -65.77688726 30.04482079 -67.56640625 38.09765625 C-44.79640625 38.09765625 -22.02640625 38.09765625 1.43359375 38.09765625 C-2.36220058 25.76132469 -4.53978482 18.87312956 -15.1484375 12.3515625 C-29.77733936 4.76533068 -48.00058752 6.8789284 -59.56640625 19.09765625 Z " fill="#2A2928" transform="translate(1030.56640625,183.90234375)"/>
<path d="M0 0 C0.82927002 0.00418945 1.65854004 0.00837891 2.51293945 0.01269531 C8.90973042 0.13019377 14.64280828 0.93193657 20.625 3.3125 C21.32496094 3.5909375 22.02492188 3.869375 22.74609375 4.15625 C35.29957248 9.83345676 44.41828188 20.18794007 49.5625 32.875 C52.88431207 42.48534596 55.95160384 54.33268848 52.625 64.3125 C9.56 64.8075 9.56 64.8075 -34.375 65.3125 C-30.41714725 76.19659506 -27.60898874 82.84960287 -17.375 88.25 C-6.60577979 92.98911056 4.94538804 94.27068849 16.2734375 90.359375 C22.49460034 87.58982078 27.77041153 84.01058731 31.625 78.3125 C35.5995504 79.01099772 38.89074098 80.94142769 42.375 82.875 C42.97699219 83.20435547 43.57898438 83.53371094 44.19921875 83.87304688 C45.67670503 84.6821465 47.15116036 85.49677662 48.625 86.3125 C45.34477316 95.21163393 38.73050017 100.66180318 30.625 105.3125 C15.71867113 112.03768093 -1.76914123 114.23353911 -17.68359375 109.34375 C-33.03120999 103.46309588 -43.64122075 94.60166711 -50.65625 79.56640625 C-56.36297974 65.8498737 -56.82776878 47.90633709 -51.5625 33.95703125 C-50.9746875 32.64798828 -50.9746875 32.64798828 -50.375 31.3125 C-50.024375 30.51199219 -49.67375 29.71148437 -49.3125 28.88671875 C-43.03011997 16.25651723 -31.65858716 6.82235984 -18.375 2.3125 C-12.22181876 0.60789211 -6.37349015 -0.0443464 0 0 Z M-27.125 30.0625 C-31.40153138 35.22956766 -34.375 40.53593518 -34.375 47.3125 C-11.935 47.3125 10.505 47.3125 33.625 47.3125 C31.01295683 35.55830576 27.11405362 29.38852968 17.625 22.3125 C2.96813464 13.84538654 -15.91433237 18.09017342 -27.125 30.0625 Z " fill="#2A2928" transform="translate(948.375,369.6875)"/>
<path d="M0 0 C7.59 0 15.18 0 23 0 C23.5576001 1.62268799 24.1152002 3.24537598 24.68969727 4.91723633 C38.53095952 45.19946206 38.53095952 45.19946206 52.5 85.4375 C52.8002005 86.29808014 53.100401 87.15866028 53.40969849 88.0453186 C56.89920985 98.04491224 60.42117202 108.03199464 64 118 C65.98282725 115.02575913 66.95300576 112.56041508 68.1003418 109.19140625 C68.71895584 107.38571671 68.71895584 107.38571671 69.35006714 105.54354858 C69.79984003 104.21655126 70.24955552 102.88953449 70.69921875 101.5625 C71.17114874 100.18041179 71.64349828 98.79846677 72.11624146 97.41665649 C73.12200506 94.47448121 74.12520939 91.53145114 75.12637329 88.58770752 C76.68675426 84.0001237 78.2530819 79.41458706 79.82104492 74.82958984 C80.08032807 74.07139387 80.33961123 73.3131979 80.60675144 72.53202629 C81.13005215 71.00188725 81.65338184 69.47175812 82.17674065 67.94163895 C82.96166588 65.64630753 83.74607945 63.35080175 84.53041077 61.05526733 C88.9138387 48.22983218 93.34472011 35.42130671 97.8125 22.625 C98.12214691 21.73635254 98.43179382 20.84770508 98.75082397 19.93212891 C99.60984417 17.46728801 100.47053522 15.00303899 101.33203125 12.5390625 C101.57680206 11.83697662 101.82157288 11.13489075 102.07376099 10.41152954 C103.304892 6.90051817 104.61704875 3.45737813 106 0 C113.26 0 120.52 0 128 0 C125.75004105 10.12481527 125.75004105 10.12481527 124.23852539 14.32128906 C123.89886749 15.27270782 123.55920959 16.22412659 123.20925903 17.20437622 C122.84243011 18.21458832 122.4756012 19.22480042 122.09765625 20.265625 C121.7081076 21.35213348 121.31855896 22.43864197 120.91720581 23.55807495 C119.63740085 27.12390526 118.34999593 30.68694021 117.0625 34.25 C116.16363342 36.74965556 115.26520167 39.24946261 114.36743164 41.74951172 C112.74286302 46.27181797 111.11630462 50.79339953 109.48723125 55.31408501 C106.59198896 63.34852524 103.71062075 71.38786485 100.8359375 79.4296875 C92.65070088 102.32113133 84.43429852 125.19896379 76 148 C68.41 148 60.82 148 53 148 C48.50017071 136.75042677 48.50017071 136.75042677 47.02734375 132.61279297 C46.69103439 131.67103714 46.35472504 130.72928131 46.00822449 129.75898743 C45.47821587 128.26567146 45.47821587 128.26567146 44.9375 126.7421875 C44.55342484 125.66507004 44.16934967 124.58795258 43.77363586 123.47819519 C42.51400169 119.94441951 41.25702222 116.40970554 40 112.875 C39.1150332 110.39112136 38.22985717 107.90731725 37.34448242 105.42358398 C35.7318909 100.89948138 34.11991125 96.37516171 32.50875759 91.85054684 C28.20829939 79.77369791 23.89763603 67.70049932 19.58569336 55.62774658 C18.35290894 52.1756547 17.12072607 48.72334865 15.88867188 45.27099609 C15.10942396 43.08819867 14.33012798 40.9054184 13.55078125 38.72265625 C13.17776886 37.67760925 12.80475647 36.63256226 12.42044067 35.55584717 C10.43029797 29.9851751 8.43061018 24.41809592 6.41943359 18.85498047 C6.00042282 17.69518173 5.58141205 16.535383 5.14970398 15.34043884 C4.34320357 13.1097468 3.53532369 10.87955289 2.72590637 8.6499176 C2.36800522 7.65999313 2.01010406 6.67006866 1.64135742 5.65014648 C1.32357834 4.77390121 1.00579926 3.89765594 0.6783905 2.99485779 C0 1 0 1 0 0 Z " fill="#2A2928" transform="translate(508,135)"/>
<path d="M0 0 C7.59 0 15.18 0 23 0 C23.52730713 1.53180908 24.05461426 3.06361816 24.59790039 4.6418457 C37.9314766 43.37120474 37.9314766 43.37120474 51.375 82.0625 C51.67270294 82.91558746 51.97040588 83.76867493 52.27713013 84.64761353 C56.16094991 95.7735042 60.07126085 106.88989527 64 118 C66.39967466 114.40048801 67.59302281 110.66218615 68.94921875 106.59375 C69.23854279 105.73821533 69.52786682 104.88268066 69.82595825 104.0012207 C70.45379664 102.14376235 71.07973723 100.2856617 71.70401001 98.42700195 C73.38398267 93.42717143 75.07938775 88.43257482 76.7734375 83.4375 C77.12257706 82.40701538 77.47171661 81.37653076 77.83143616 80.31481934 C81.43534157 69.69016633 85.11228503 59.0914421 88.8125 48.5 C89.12376831 47.60864349 89.43503662 46.71728699 89.7557373 45.79891968 C95.09878167 30.50683641 100.51502735 15.24177107 106 0 C113.26 0 120.52 0 128 0 C125.75008535 10.12461591 125.75008535 10.12461591 124.33032227 14.04589844 C124.01068008 14.93727509 123.6910379 15.82865173 123.36170959 16.74703979 C123.01675949 17.69161041 122.67180939 18.63618103 122.31640625 19.609375 C121.94909897 20.62911407 121.58179169 21.64885315 121.20335388 22.69949341 C119.99474193 26.05149363 118.77857347 29.40070037 117.5625 32.75 C116.71100569 35.10802529 115.86010403 37.46626466 115.00976562 39.82470703 C113.23685729 44.74042491 111.46138337 49.65520474 109.68408203 54.56933594 C105.83894785 65.20672303 102.02332158 75.85467662 98.20840454 86.50292969 C97.0085225 89.85121783 95.80749296 93.19909242 94.60620117 96.546875 C91.18492604 106.08458591 87.77055119 115.62446907 84.3984375 125.1796875 C84.1323468 125.93309418 83.8662561 126.68650085 83.59210205 127.46273804 C82.40094973 130.83682181 81.21299085 134.21196386 80.03125 137.58935547 C79.63679687 138.70971191 79.24234375 139.83006836 78.8359375 140.984375 C78.50126465 141.94053711 78.1665918 142.89669922 77.82177734 143.88183594 C77 146 77 146 76 147 C74.29227642 147.08713831 72.58101351 147.10700007 70.87109375 147.09765625 C69.31938477 147.09282227 69.31938477 147.09282227 67.73632812 147.08789062 C66.64771484 147.07951172 65.55910156 147.07113281 64.4375 147.0625 C62.7987793 147.05573242 62.7987793 147.05573242 61.12695312 147.04882812 C58.41791505 147.03699826 55.70898401 147.02051543 53 147 C49.69914577 139.95808378 47.03688264 132.75684341 44.46484375 125.421875 C43.80326716 123.55024368 43.14168864 121.67861304 42.48003292 119.8070097 C41.77882829 117.82144432 41.07936948 115.83527201 40.38043213 113.84890747 C38.17480769 107.58100785 35.95841247 101.31691351 33.7430191 95.05246162 C32.98543154 92.90990943 32.22827135 90.76720651 31.47113037 88.62449646 C26.18868637 73.6808269 20.83610562 58.76252198 15.46847534 43.84924316 C10.21899521 29.26411024 5.07159202 14.64808576 0 0 Z " fill="#2A2928" transform="translate(508,331)"/>
<path d="M0 0 C6.93 0 13.86 0 21 0 C21.70640625 1.63195312 22.4128125 3.26390625 23.140625 4.9453125 C23.89879724 6.69593006 24.65697247 8.44654632 25.41519165 10.19714355 C25.97198081 11.48295911 26.52860094 12.76884787 27.08505249 14.05480957 C30.68724479 22.37943259 34.30233683 30.69826176 37.93673706 39.00888062 C39.77328326 43.20889998 41.6071791 47.41007469 43.44104004 51.61126709 C44.35680562 53.70709463 45.2738837 55.80234916 46.19226074 57.89703369 C47.49213606 60.86222407 48.78752923 63.82933571 50.08203125 66.796875 C50.47830215 67.69765778 50.87457306 68.59844055 51.28285217 69.52651978 C51.64173019 70.35146942 52.00060822 71.17641907 52.37036133 72.02636719 C52.68644852 72.74862488 53.00253571 73.47088257 53.32820129 74.21502686 C54 76 54 76 54 78 C54.66 78 55.32 78 56 78 C56.24728096 77.12234482 56.24728096 77.12234482 56.4995575 76.22695923 C58.47602128 69.40908036 60.8828456 62.82330918 63.45703125 56.2109375 C63.88247726 55.10883942 64.30792328 54.00674133 64.7462616 52.87124634 C66.09816935 49.3711302 67.45512209 45.87299793 68.8125 42.375 C70.59115514 37.77915256 72.36786281 33.18255326 74.14453125 28.5859375 C74.56904572 27.48876404 74.99356018 26.39159058 75.43093872 25.26116943 C78.67760192 16.8613588 81.85961965 8.44009661 85 0 C91.93 0 98.86 0 106 0 C102.62494336 11.25018882 102.62494336 11.25018882 101.04907227 15.35888672 C100.51449402 16.76051559 100.51449402 16.76051559 99.96911621 18.19046021 C99.58872192 19.17690521 99.20832764 20.16335022 98.81640625 21.1796875 C98.40853882 22.24613495 98.00067139 23.3125824 97.58044434 24.41134644 C96.24484053 27.90066638 94.90395851 31.38792709 93.5625 34.875 C92.62732106 37.31144602 91.69234682 39.74797061 90.75756836 42.18457031 C89.30844242 45.96112242 87.85896272 49.73753444 86.40748596 53.51318359 C83.50714686 61.05943407 80.62312947 68.6115962 77.754776 76.17007446 C75.95842504 80.90203139 74.15591297 85.6316283 72.35250854 90.36090088 C71.49988367 92.60090946 70.64984063 94.84190267 69.80252075 97.08392334 C55.07218378 136.03854674 55.07218378 136.03854674 36.4765625 145.25 C29.48690236 148.13398585 23.51765235 148.35377188 16 148 C16 142.06 16 136.12 16 130 C17.629375 129.79375 19.25875 129.5875 20.9375 129.375 C28.40568226 127.95614124 33.51141241 125.37269108 38.078125 119.18359375 C41.40672802 113.77799657 43.63842516 109.42102806 44 103 C43.25012556 100.08125971 42.03289695 97.4428169 40.7578125 94.71875 C40.22550774 93.52714264 40.22550774 93.52714264 39.68244934 92.3114624 C38.51209406 89.70036524 37.31849388 87.10059124 36.125 84.5 C35.30225112 82.67369137 34.48139532 80.84652883 33.66235352 79.01855469 C31.96420198 75.23139492 30.25867346 71.44768816 28.54833984 67.66601562 C24.96379506 59.72015287 21.48717334 51.72759931 18.01528931 43.73202515 C16.94606367 41.26972115 15.87504228 38.80820599 14.8034668 36.34692383 C13.16126703 32.57448011 11.52088481 28.80125048 9.88134766 25.02764893 C9.0519305 23.11947252 8.22146762 21.2117553 7.390625 19.30419922 C6.06897745 16.26698564 4.75202733 13.22780042 3.4375 10.1875 C3.07325928 9.35186523 2.70901855 8.51623047 2.33374023 7.65527344 C0 2.23138414 0 2.23138414 0 0 Z " fill="#2A2928" transform="translate(1094,372)"/>
<path d="M0 0 C6.27 0 12.54 0 19 0 C19.01458252 2.00755371 19.02916504 4.01510742 19.04418945 6.08349609 C19.09474069 12.74920709 19.16137068 19.41468949 19.23571491 26.0801754 C19.28026218 30.11771995 19.31955172 34.15516723 19.34643555 38.19287109 C19.37262599 42.09640214 19.41313666 45.99955567 19.46318626 49.9028511 C19.4797494 51.38497818 19.4913289 52.86717039 19.49761391 54.34937668 C19.5270116 70.16211521 19.5270116 70.16211521 27.1484375 83.52734375 C33.02047562 88.19772006 39.81147513 89.69629526 47.19921875 89.3828125 C55.26804491 88.27996039 62.65096748 85.28438247 68 79 C74.86012191 69.37857115 74.30786742 56.21706904 74.4140625 44.921875 C74.43342865 43.62928772 74.4527948 42.33670044 74.4727478 41.00494385 C74.52348155 37.61198745 74.56341633 34.21899197 74.60089111 30.8258667 C74.64130524 27.34605721 74.69222429 23.86640191 74.7421875 20.38671875 C74.83824825 13.59125326 74.92189586 6.7956954 75 0 C81.27 0 87.54 0 94 0 C94 34.98 94 69.96 94 106 C87.73 106 81.46 106 75 106 C74.67 101.71 74.34 97.42 74 93 C73.0925 94.19625 72.185 95.3925 71.25 96.625 C65.77043993 102.93377775 57.30359915 107.47257826 48.88452148 108.17700195 C33.33725849 108.59792343 22.1655208 107.37058671 10.3515625 96.48046875 C2.62493372 88.42045751 -0.13202335 77.49770743 -0.11352539 66.6394043 C-0.11367142 65.91690994 -0.11381744 65.19441559 -0.1139679 64.45002747 C-0.11327422 62.07472678 -0.10550745 59.69950565 -0.09765625 57.32421875 C-0.09579013 55.67226708 -0.09436714 54.02031485 -0.09336853 52.36836243 C-0.08955861 48.02992208 -0.07974139 43.69151545 -0.06866455 39.35308838 C-0.0584176 34.92224585 -0.05386388 30.49139785 -0.04882812 26.06054688 C-0.03811771 17.37368075 -0.0205333 8.68684846 0 0 Z " fill="#2A2928" transform="translate(825,177)"/>
<path d="M0 0 C0 9.9 0 19.8 0 30 C9.24 30 18.48 30 28 30 C28 35.94 28 41.88 28 48 C18.76 48 9.52 48 0 48 C0.08868863 55.82560424 0.17920646 63.65081287 0.28729248 71.47611237 C0.33710951 75.12067491 0.38359935 78.76520853 0.421875 82.40991211 C0.45891352 85.92433906 0.505322 89.43853176 0.55806351 92.95275688 C0.58544908 94.93726278 0.60328193 96.92189312 0.62094116 98.9065094 C0.71935636 104.95285895 0.88515682 110.30476441 3 116 C6.02769315 116.86111516 8.84266637 117.18230893 11.984375 117.31640625 C12.91894531 117.35830078 13.85351562 117.40019531 14.81640625 117.44335938 C15.78449219 117.48267578 16.75257812 117.52199219 17.75 117.5625 C19.22533203 117.62727539 19.22533203 117.62727539 20.73046875 117.69335938 C23.15348927 117.79921949 25.57672672 117.90009312 28 118 C28 123.94 28 129.88 28 136 C24.02041432 136.08146233 20.04252172 136.14072862 16.0625 136.1875 C14.94552734 136.21263672 13.82855469 136.23777344 12.67773438 136.26367188 C3.40312766 136.34526666 -4.70139373 135.13746436 -12 129 C-17.1881784 122.39948415 -19.25932445 115.55401926 -19.22705078 107.14672852 C-19.22734283 106.50197067 -19.22763489 105.85721283 -19.22793579 105.19291687 C-19.22655626 103.08810374 -19.21106128 100.98365658 -19.1953125 98.87890625 C-19.19157745 97.40917657 -19.1887328 95.93944438 -19.18673706 94.4697113 C-19.1791393 90.62115477 -19.15952447 86.77275171 -19.1373291 82.92425537 C-19.11678708 78.98923823 -19.10771755 75.05419605 -19.09765625 71.11914062 C-19.07627448 63.4126827 -19.04112433 55.7063825 -19 48 C-25.93 48 -32.86 48 -40 48 C-40 42.06 -40 36.12 -40 30 C-33.07 30 -26.14 30 -19 30 C-19 22.08 -19 14.16 -19 6 C-14.76840832 4.18646071 -11.02246757 2.58669731 -6.6875 1.3125 C-5.84574219 1.06113281 -5.00398438 0.80976563 -4.13671875 0.55078125 C-2 0 -2 0 0 0 Z " fill="#2A2928" transform="translate(1052,343)"/>
<path d="M0 0 C6.27 0 12.54 0 19 0 C19 51.15 19 102.3 19 155 C12.73 155 6.46 155 0 155 C0 103.85 0 52.7 0 0 Z " fill="#2A2928" transform="translate(778,128)"/>
<path d="M0 0 C0 6.6 0 13.2 0 20 C-3.1865625 20.3403125 -3.1865625 20.3403125 -6.4375 20.6875 C-15.19047323 21.95937502 -22.2334587 24.68894345 -27.68559265 31.92752075 C-32.79861783 39.98943442 -32.46943288 49.54561222 -32.51171875 58.7578125 C-32.52860065 60.15601135 -32.5467555 61.55419534 -32.56611633 62.95236206 C-32.61324235 66.59854487 -32.64329167 70.24466747 -32.66955566 73.89105225 C-32.69955211 77.62540578 -32.74601583 81.35955246 -32.79101562 85.09375 C-32.87662222 92.39574738 -32.94262899 99.69771618 -33 107 C-39.27 107 -45.54 107 -52 107 C-52 72.35 -52 37.7 -52 2 C-45.73 2 -39.46 2 -33 2 C-32.67 6.29 -32.34 10.58 -32 15 C-31.01 13.783125 -30.02 12.56625 -29 11.3125 C-20.64437737 1.79450244 -12.64751069 0 0 0 Z " fill="#2A2928" transform="translate(830,371)"/>
<path d="M0 0 C6.27 0 12.54 0 19 0 C19 34.65 19 69.3 19 105 C12.73 105 6.46 105 0 105 C0 70.35 0 35.7 0 0 Z " fill="#2A2928" transform="translate(850,373)"/>
<path d="M0 0 C3.2243415 2.75017363 4.83057458 4.8777044 5.48046875 9.1484375 C5.72932884 13.62791914 5.65715147 16.8141695 2.75 20.375 C-1.46585174 24.28971947 -4.4955983 24.20130263 -10.1015625 24.171875 C-14.39615537 23.61539254 -16.00845993 21.98078113 -18.875 18.8125 C-20.71967846 15.12314308 -20.22509552 10.84814658 -19.875 6.8125 C-18.57983047 3.60865959 -17.35502642 2.2219343 -14.75 0 C-9.77021813 -2.05686643 -4.97978187 -2.05686643 0 0 Z " fill="#2A2928" transform="translate(866.875,330.1875)"/>
</svg>
